<svg width="23" height="24" viewBox="0 0 23 24" xmlns="http://www.w3.org/2000/svg">
    <g fill-rule="nonzero" fill="none">
        <path d="M22.989 12.225c0-.984-.078-1.701-.248-2.445H11.73v4.438h6.464c-.13 1.103-.834 2.763-2.398 3.88l-.022.148 3.482 2.75.241.025c2.216-2.086 3.493-5.156 3.493-8.796" fill="#4285F4"/>
        <path d="M11.73 23.918c3.166 0 5.824-1.063 7.766-2.897l-3.7-2.923c-.991.704-2.32 1.195-4.067 1.195-3.102 0-5.734-2.086-6.673-4.969l-.137.012-3.62 2.857-.048.134c1.929 3.906 5.89 6.59 10.478 6.59" fill="#34A853"/>
        <path d="M5.056 14.324a7.493 7.493 0 0 1-.39-2.365c0-.824.143-1.621.377-2.365l-.006-.159L1.37 6.532l-.12.059A12.161 12.161 0 0 0 0 11.959c0 1.926.456 3.747 1.251 5.368l3.805-3.003" fill="#FBBC05"/>
        <path d="M11.73 4.624c2.202 0 3.687.97 4.534 1.78l3.31-3.295C17.543 1.183 14.897 0 11.73 0 7.142 0 3.18 2.684 1.251 6.59l3.792 3.004c.952-2.884 3.584-4.97 6.686-4.97" fill="#EB4335"/>
    </g>
</svg>